# xmcd
#
# Track frame offsets:
#	150
#	20487
#	58542
#	79977
#	111415
#	134162
#	154992
#	180790
#	195605
#	215447
#	250272
#	274462
#	303910
#	317225
#
# Disc length: 4573 seconds
# Revision: 0
# Processed by: cddbd v1.5.2PL0 Copyright (c) Steve Scherf et al.
# Submitted via: dBpowerAMP V12.0
#
DISCID=ce11db0e
DTITLE=Buddy Guy - Buddy's Baddest: The Best of Buddy Guy
DYEAR=1999
DGENRE=Blues
TTITLE0=Damn Right, I've Got the Blues
TTITLE1=Five Long Years
TTITLE2=Mustang Sally
TTITLE3=Rememberin' Stevie
TTITLE4=She's a Superstar
TTITLE5=Feels Like Rain
TTITLE6=She's Nineteen Years Old
TTITLE7=I Smell Trouble
TTITLE8=Someone Else Is Steppin' In (Slippin' Out, Slippin' In)
TTITLE9=My Time After Awhile
TTITLE10=Midnight Train
TTITLE11=Miss Ida B
TTITLE12=I Need Your Love So Bad
TTITLE13=Innocent Man
EXTD=
EXTT0=
EXTT1=
EXTT2=
EXTT3=
EXTT4=
EXTT5=
EXTT6=
EXTT7=
EXTT8=
EXTT9=
EXTT10=
EXTT11=
EXTT12=
EXTT13=
PLAYORDER=
